<?xml version="1.0" standalone="no"?>
<!DOCTYPE svg PUBLIC "-//W3C//DTD SVG 20010904//EN"
 "http://www.w3.org/TR/2001/REC-SVG-20010904/DTD/svg10.dtd">
<svg version="1.0" xmlns="http://www.w3.org/2000/svg"
 width="500.000000pt" height="500.000000pt" viewBox="0 0 500.000000 500.000000"
 preserveAspectRatio="xMidYMid meet">

<g transform="translate(0.000000,500.000000) scale(0.100000,-0.100000)"
fill="#000000" stroke="none">
<path d="M0 2500 l0 -2500 2500 0 2500 0 0 2500 0 2500 -2500 0 -2500 0 0
-2500z m4620 2003 c15 -9 38 -33 50 -54 21 -38 21 -43 18 -506 -3 -446 -5
-471 -24 -523 -42 -110 -77 -165 -150 -238 l-74 -72 -2 -1268 -3 -1267 -24
-34 c-47 -65 91 -61 -1941 -61 -2024 0 -1890 -4 -1943 59 l-27 33 0 1297 0
1298 -22 19 c-39 35 -107 150 -135 230 l-28 79 -3 462 c-3 512 -4 504 61 543
31 20 67 20 2125 20 1933 0 2096 -1 2122 -17z"/>
<path d="M590 3906 c0 -310 1 -339 21 -401 17 -55 31 -78 73 -120 70 -70 128
-90 261 -90 185 1 303 60 356 177 24 52 24 58 27 411 l3 357 -370 0 -371 0 0
-334z"/>
<path d="M1620 3920 c0 -336 5 -391 45 -470 31 -60 67 -93 140 -127 53 -25 71
-28 160 -28 215 1 338 69 381 211 11 37 14 121 14 391 l0 343 -370 0 -370 0 0
-320z"/>
<path d="M2652 3888 c4 -407 6 -415 93 -504 69 -69 127 -89 260 -89 185 1 303
60 356 177 24 52 24 58 27 411 l3 357 -371 0 -371 0 3 -352z"/>
<path d="M3672 3888 l3 -353 29 -63 c58 -125 152 -177 316 -177 155 1 252 34
319 110 66 75 65 73 69 473 l3 362 -371 0 -371 0 3 -352z"/>
<path d="M1444 3189 c-115 -120 -338 -190 -566 -176 l-98 6 0 -1129 0 -1130
920 0 920 0 0 818 c0 455 5 834 10 856 13 56 58 116 115 151 l48 30 421 3
c372 2 426 1 465 -14 55 -21 106 -66 134 -118 l22 -41 3 -842 3 -843 159 0
160 0 0 1128 0 1127 -133 1 c-198 1 -307 37 -435 144 l-62 52 -52 -46 c-118
-103 -265 -150 -468 -150 -202 0 -313 37 -443 148 l-63 53 -54 -49 c-161 -145
-459 -197 -707 -123 -63 19 -162 79 -217 133 -24 23 -45 42 -48 42 -2 0 -17
-14 -34 -31z m624 -555 c29 -14 64 -41 78 -60 53 -68 54 -86 54 -638 0 -281
-5 -529 -10 -550 -14 -63 -59 -118 -119 -148 l-55 -28 -362 0 c-391 0 -398 1
-463 56 -18 15 -42 45 -54 68 -22 41 -22 43 -22 601 l0 560 22 42 c13 23 38
53 56 67 72 55 74 55 463 56 l360 0 52 -26z"/>
<path d="M1390 2120 l0 -260 265 0 265 0 0 260 0 260 -265 0 -265 0 0 -260z"/>
<path d="M1390 1535 l0 -45 265 0 265 0 0 45 0 45 -265 0 -265 0 0 -45z"/>
<path d="M2900 1550 l0 -790 330 0 330 0 0 790 0 790 -330 0 -330 0 0 -790z"/>
</g>
</svg>
