<?xml version="1.0" encoding="utf-8"?>
<!-- Generator: Adobe Illustrator 27.5.0, SVG Export Plug-In . SVG Version: 6.00 Build 0)  -->
<svg version="1.1" xmlns="http://www.w3.org/2000/svg" xmlns:xlink="http://www.w3.org/1999/xlink" x="0px" y="0px"
	 viewBox="0 0 500 500" style="enable-background:new 0 0 500 500;" xml:space="preserve">
<g id="Background_Simple">
	<g>
		<path style="fill:#92E3A9;" d="M470.923,280.055c-14.722,39.433-44.804,82.112-87.135,94.748
			c-63.961,19.098-71.602,70.655-186.162,65.873c-17.862-0.744-34.371-3.256-49.538-7.264c-8.153-2.154-15.92-4.753-23.291-7.747
			C57.87,398.558,22.958,338.896,20.06,276.471c-3.826-82.102,53.46-121.236,90.69-144.15
			c37.231-22.914,82.102-111.701,194.76-107.886c17.176,0.589,34.313,2.937,50.919,7.438c37.907,10.259,76.441,32.951,98.834,66.124
			c1.681,2.492,3.284,5.043,4.82,7.641C490.05,156.482,490.997,226.296,470.923,280.055z"/>
		<path style="opacity:0.7;fill:#FFFFFF;" d="M470.923,280.055c-14.722,39.433-44.804,82.112-87.135,94.748
			c-63.961,19.098-71.602,70.655-186.162,65.873c-17.862-0.744-34.371-3.256-49.538-7.264c-8.153-2.154-15.92-4.753-23.291-7.747
			C57.87,398.558,22.958,338.896,20.06,276.471c-3.826-82.102,53.46-121.236,90.69-144.15
			c37.231-22.914,82.102-111.701,194.76-107.886c17.176,0.589,34.313,2.937,50.919,7.438c37.907,10.259,76.441,32.951,98.834,66.124
			c1.681,2.492,3.284,5.043,4.82,7.641C490.05,156.482,490.997,226.296,470.923,280.055z"/>
	</g>
</g>
<g id="Puzzle">
	<g>
		<g>
			<path style="fill:none;stroke:#263238;stroke-miterlimit:10;" d="M250.498,315.716c-11.625-26.4-9.913-69.636-4.519-73.232
				c5.933-3.955,15.326,16.314,24.719,10.382c9.393-5.933,15.82-18.786,7.91-39.056s-18.292-6.921-25.708-1.977
				c-7.416,4.944-13.348,0.494-11.865-17.303c1.094-13.125,6.217-37.256,8.834-49.032c1.179,0.51,2.357,1.024,3.526,1.571
				c-23.236-10.876-48.943-14.337-59.82-10.876c-10.875,3.46-8.899,4.449-3.463,17.298c11.343,26.809-31.618,36.024-44.021,15.352
				c-7.416-12.36,3.484-19.302,0.518-28.201c-2.966-8.899-57.842,1.483-64.763,5.438c0,0,13.348,40.045,11.371,54.382
				c-1.978,14.337-8.899,20.764-19.281,10.382c-10.382-10.382-23.73-0.989-24.224,16.314c-0.494,17.303,2.472,31.146,14.337,27.191
				s21.258-18.292,25.213,0c3.955,18.292-2.966,42.022-6.921,58.831c0,0,31.146,13.348,45.483,12.359
				c14.337-0.989,23.236-1.483,18.786-10.382c-4.449-8.899-11.865-14.831-6.427-24.719c5.438-9.888,27.191-8.899,38.561-6.427
				c11.371,2.472,16.314,10.876,12.854,20.27c-3.461,9.393-9.393,18.786,1.483,20.764c10.252,1.864,36.316-2.423,62.046-10.788
				C253.584,314.758,252.04,315.244,250.498,315.716z"/>
			<path style="fill:none;stroke:#263238;stroke-miterlimit:10;" d="M259.822,312.685c-1.522,0.526-3.048,1.036-4.575,1.532
				C256.774,313.72,258.3,313.211,259.822,312.685z"/>
		</g>
		<path style="fill:none;stroke:#263238;stroke-miterlimit:10;" d="M440.269,206.394c-9.393,0-9.888,7.416-19.775,5.933
			c-9.888-1.483-10.876-24.225-0.494-64.269c0,0-11.371,8.404-37.078,8.899c-25.708,0.494-36.09-2.472-29.663-11.865
			c6.427-9.393,11.371-16.809,5.933-24.225c-5.438-7.416-31.64-6.427-40.045,0c-8.404,6.427-2.472,13.843,3.461,22.247
			c5.932,8.404-0.989,13.348-10.876,13.843c-9.888,0.494-35.101,0.989-58.336-9.888c-1.169-0.547-2.347-1.062-3.526-1.571
			c-2.617,11.776-7.74,35.907-8.834,49.032c-1.483,17.798,4.449,22.247,11.865,17.303c7.416-4.944,17.798-18.292,25.708,1.977
			s1.483,33.123-7.91,39.056c-9.393,5.933-18.786-14.337-24.719-10.382c-5.394,3.596-7.106,46.832,4.519,73.232
			c3.108-0.951,6.225-1.96,9.323-3.031c27.191-9.393,54.382-13.843,59.325-7.416c4.944,6.427,2.966,5.438-3.461,15.326
			c-6.427,9.888-5.933,18.292,4.944,23.236c10.876,4.944,37.573,3.955,40.044-7.416c2.472-11.371-11.371-17.798-4.944-28.674
			c6.427-10.876,63.28,4.944,63.28,4.944s-12.854-43.505-7.91-57.842c4.944-14.337,8.899-10.876,16.809-5.438
			c7.91,5.438,18.292,4.944,22.247-10.876C454.112,222.708,449.662,206.394,440.269,206.394z"/>
	</g>
</g>
<g id="Target">
	<g>
		<g>
			
				<ellipse transform="matrix(0.9043 -0.4268 0.4268 0.9043 4.6567 178.3241)" style="fill:#92E3A9;stroke:#263238;stroke-miterlimit:10;" cx="400.115" cy="78.774" rx="25.198" ry="25.198"/>
			
				<ellipse transform="matrix(0.9948 -0.1021 0.1021 0.9948 -5.953 41.2755)" style="fill:#FFFFFF;stroke:#263238;stroke-miterlimit:10;" cx="400.115" cy="78.774" rx="20.716" ry="20.716"/>
			
				<ellipse transform="matrix(0.903 -0.4296 0.4296 0.903 4.9631 179.5334)" style="fill:#92E3A9;stroke:#263238;stroke-miterlimit:10;" cx="400.115" cy="78.774" rx="15.089" ry="15.089"/>
			<path style="fill:#FFFFFF;stroke:#263238;stroke-miterlimit:10;" d="M409.641,78.774c0-5.261-4.265-9.526-9.526-9.526
				c-5.261,0-9.526,4.265-9.526,9.526c0,5.261,4.265,9.526,9.526,9.526C405.376,88.3,409.641,84.035,409.641,78.774z"/>
			<path style="fill:#92E3A9;stroke:#263238;stroke-miterlimit:10;" d="M404.525,78.774c0-2.436-1.975-4.41-4.41-4.41
				c-2.436,0-4.41,1.975-4.41,4.41s1.975,4.41,4.41,4.41C402.551,83.185,404.525,81.21,404.525,78.774z"/>
		</g>
		<g>
			<polygon style="fill:#263238;stroke:#263238;stroke-miterlimit:10;" points="401.936,71.86 400.115,78.774 406.643,80.204 			"/>
			
				<line style="fill:#FFFFFF;stroke:#263238;stroke-width:2;stroke-miterlimit:10;" x1="404.717" y1="75.711" x2="433.387" y2="60.092"/>
			<polygon style="fill:#263238;stroke:#263238;stroke-miterlimit:10;" points="424.187,65.227 424.615,57.739 438.094,50.036 
				438.094,58.595 			"/>
			<polygon style="fill:#263238;stroke:#263238;stroke-miterlimit:10;" points="443.871,62.66 437.969,58.307 424.133,65.584 
				430.796,69.439 			"/>
		</g>
	</g>
</g>
<g id="Chart">
	<g>
		<rect x="257.988" y="80.299" style="fill:#92E3A9;stroke:#263238;stroke-miterlimit:10;" width="10.023" height="23.862"/>
		<rect x="272.762" y="73.069" style="fill:#92E3A9;stroke:#263238;stroke-miterlimit:10;" width="10.023" height="31.092"/>
		<rect x="287.535" y="80.299" style="fill:#92E3A9;stroke:#263238;stroke-miterlimit:10;" width="10.023" height="23.862"/>
		<rect x="302.308" y="71.498" style="fill:#92E3A9;stroke:#263238;stroke-miterlimit:10;" width="10.023" height="32.663"/>
		<rect x="317.081" y="59.554" style="fill:#92E3A9;stroke:#263238;stroke-miterlimit:10;" width="10.023" height="44.608"/>
		<polygon style="fill:#263238;stroke:#263238;stroke-linecap:round;stroke-linejoin:round;stroke-miterlimit:10;" points="
			313.798,40.648 317.708,42.32 291.118,67.839 278.419,60.912 258.302,73.141 258.302,76.834 278.504,64.553 291.636,71.716 
			319.893,44.597 321.404,48.573 326.994,35.596 		"/>
	</g>
</g>
<g id="Money">
	<g>
		<g>
			
				<ellipse transform="matrix(0.9735 -0.2285 0.2285 0.9735 -12.9019 45.8151)" style="fill:#FFFFFF;stroke:#263238;stroke-miterlimit:10;" cx="191.383" cy="78.619" rx="25.198" ry="25.198"/>
			
				<ellipse transform="matrix(0.9749 -0.2226 0.2226 0.9749 -12.6998 44.5803)" style="fill:#92E3A9;stroke:#263238;stroke-miterlimit:10;" cx="191.383" cy="78.619" rx="22.401" ry="22.401"/>
			
				<ellipse transform="matrix(0.9882 -0.1531 0.1531 0.9882 -9.8037 30.2239)" style="fill:#FFFFFF;stroke:#263238;stroke-miterlimit:10;" cx="191.362" cy="78.774" rx="20.214" ry="20.214"/>
		</g>
		<g>
			<path style="fill:#263238;" d="M191.073,96.064v-3.209c-2.37-0.092-4.141-0.851-5.315-2.278
				c-1.173-1.426-1.806-3.554-1.898-6.385l4.866-0.828c0.046,1.15,0.167,2.111,0.362,2.881c0.196,0.771,0.488,1.346,0.88,1.726
				c0.391,0.38,0.897,0.569,1.518,0.569c0.713,0,1.202-0.23,1.467-0.69c0.264-0.46,0.397-0.989,0.397-1.587
				c0-1.174-0.271-2.157-0.811-2.951c-0.541-0.794-1.283-1.593-2.226-2.398l-2.934-2.519c-0.668-0.621-1.265-1.254-1.795-1.898
				c-0.529-0.644-0.949-1.38-1.259-2.208c-0.31-0.829-0.466-1.806-0.466-2.934c0-2.162,0.615-3.848,1.846-5.056
				c1.231-1.208,2.882-1.892,4.952-2.053v-3.072h1.657v3.072c1.242,0.069,2.26,0.351,3.054,0.845
				c0.794,0.495,1.398,1.116,1.812,1.864c0.414,0.748,0.713,1.565,0.897,2.45c0.184,0.886,0.298,1.743,0.345,2.571l-4.935,0.725
				c-0.023-0.851-0.092-1.604-0.207-2.26c-0.115-0.656-0.322-1.168-0.621-1.536c-0.299-0.368-0.759-0.541-1.38-0.518
				c-0.645,0.023-1.133,0.276-1.467,0.759c-0.334,0.483-0.5,1.024-0.5,1.622c0,1.059,0.253,1.91,0.759,2.554
				c0.506,0.645,1.081,1.265,1.726,1.864l2.864,2.485c0.759,0.69,1.461,1.438,2.105,2.243c0.644,0.806,1.162,1.697,1.553,2.675
				c0.391,0.978,0.587,2.099,0.587,3.365c0,1.219-0.247,2.329-0.742,3.33c-0.495,1.001-1.208,1.812-2.14,2.433
				c-0.932,0.622-2.031,0.989-3.296,1.104v3.244H191.073z"/>
		</g>
	</g>
</g>
<g id="Calendar">
	<g>
		<rect x="62.919" y="59.119" style="fill:#FFFFFF;stroke:#263238;stroke-miterlimit:10;" width="46.787" height="43.988"/>
		
			<rect x="62.919" y="59.119" style="fill:#92E3A9;stroke:#263238;stroke-linecap:round;stroke-linejoin:round;stroke-miterlimit:10;" width="46.787" height="11.31"/>
		<g>
			<g>
				
					<rect x="66.718" y="76.715" style="fill:#92E3A9;stroke:#263238;stroke-linecap:round;stroke-linejoin:round;stroke-miterlimit:10;" width="5.598" height="5.598"/>
				
					<rect x="75.116" y="76.715" style="fill:#92E3A9;stroke:#263238;stroke-linecap:round;stroke-linejoin:round;stroke-miterlimit:10;" width="5.598" height="5.598"/>
				
					<rect x="83.514" y="76.715" style="fill:#92E3A9;stroke:#263238;stroke-linecap:round;stroke-linejoin:round;stroke-miterlimit:10;" width="5.598" height="5.598"/>
				
					<rect x="91.912" y="76.715" style="fill:#92E3A9;stroke:#263238;stroke-linecap:round;stroke-linejoin:round;stroke-miterlimit:10;" width="5.598" height="5.598"/>
				
					<rect x="100.309" y="76.715" style="fill:#92E3A9;stroke:#263238;stroke-linecap:round;stroke-linejoin:round;stroke-miterlimit:10;" width="5.599" height="5.598"/>
			</g>
			<g>
				
					<rect x="66.718" y="85.512" style="fill:#92E3A9;stroke:#263238;stroke-linecap:round;stroke-linejoin:round;stroke-miterlimit:10;" width="5.598" height="5.598"/>
				
					<rect x="75.116" y="85.512" style="fill:#92E3A9;stroke:#263238;stroke-linecap:round;stroke-linejoin:round;stroke-miterlimit:10;" width="5.598" height="5.598"/>
				
					<rect x="83.514" y="85.512" style="fill:#92E3A9;stroke:#263238;stroke-linecap:round;stroke-linejoin:round;stroke-miterlimit:10;" width="5.598" height="5.598"/>
				
					<rect x="91.912" y="85.512" style="fill:#92E3A9;stroke:#263238;stroke-linecap:round;stroke-linejoin:round;stroke-miterlimit:10;" width="5.598" height="5.598"/>
				
					<rect x="100.309" y="85.512" style="fill:#92E3A9;stroke:#263238;stroke-linecap:round;stroke-linejoin:round;stroke-miterlimit:10;" width="5.599" height="5.598"/>
			</g>
			<g>
				
					<rect x="66.718" y="94.31" style="fill:#92E3A9;stroke:#263238;stroke-linecap:round;stroke-linejoin:round;stroke-miterlimit:10;" width="5.598" height="5.598"/>
				
					<rect x="75.116" y="94.31" style="fill:#92E3A9;stroke:#263238;stroke-linecap:round;stroke-linejoin:round;stroke-miterlimit:10;" width="5.598" height="5.598"/>
				
					<rect x="83.514" y="94.31" style="fill:#92E3A9;stroke:#263238;stroke-linecap:round;stroke-linejoin:round;stroke-miterlimit:10;" width="5.598" height="5.598"/>
				
					<rect x="91.912" y="94.31" style="fill:#92E3A9;stroke:#263238;stroke-linecap:round;stroke-linejoin:round;stroke-miterlimit:10;" width="5.598" height="5.598"/>
				
					<rect x="100.309" y="94.31" style="fill:#92E3A9;stroke:#263238;stroke-linecap:round;stroke-linejoin:round;stroke-miterlimit:10;" width="5.599" height="5.598"/>
			</g>
		</g>
		<g>
			<rect x="69.318" y="51.921" style="fill:#263238;" width="3.999" height="10.797"/>
			<rect x="79.315" y="51.921" style="fill:#263238;" width="3.999" height="10.797"/>
			<rect x="89.312" y="51.921" style="fill:#263238;" width="3.999" height="10.797"/>
			<rect x="99.31" y="51.921" style="fill:#263238;" width="3.999" height="10.797"/>
		</g>
	</g>
</g>
<g id="Plants">
	<g>
		<path style="fill:#92E3A9;" d="M22.226,387.725c2.171,0.948,7.481,0.829,7.485,0.829c0.055-0.001-1.142-3.476-1.242-3.687
			c-1.165-2.438-4.85-6.462-7.847-6.057c-2.16,0.292-3.361,2.453-2.873,4.487C18.247,385.374,20.377,386.917,22.226,387.725z"/>
		<path style="fill:#92E3A9;" d="M24.059,403.106c2.252,0.328,6.991-1.046,7.368-1.157c0.748,2.653,1.731,5.314,2.874,7.953
			c0.652,1.509,1.355,3.009,2.08,4.504c-0.432-0.633-0.823-1.196-0.886-1.269c-1.768-2.043-6.384-4.951-9.168-3.769
			c-2.007,0.852-2.594,3.253-1.587,5.086c1.028,1.871,3.491,2.797,5.488,3.088c2.026,0.296,6.09-0.795,7.162-1.098
			c0.284,0.571,0.561,1.143,0.847,1.713c1.372,2.733,2.753,5.453,4.026,8.163c0.449,0.955,0.856,1.912,1.267,2.868
			c-0.385-0.562-0.713-1.032-0.771-1.099c-1.768-2.043-6.383-4.951-9.168-3.769c-2.006,0.852-2.594,3.254-1.586,5.086
			c1.029,1.872,3.491,2.797,5.488,3.088c1.933,0.282,5.693-0.691,6.968-1.045c0.391,0.992,0.785,1.984,1.119,2.963
			c0.213,0.673,0.466,1.307,0.642,1.995c0.189,0.678,0.376,1.349,0.562,2.013c0.31,1.292,0.638,2.624,0.909,3.893
			c0.195,0.881,0.365,1.724,0.538,2.573c-0.436-0.956-1.329-2.809-1.421-2.955c-1.437-2.287-5.559-5.861-8.491-5.114
			c-2.112,0.539-3.056,2.823-2.338,4.787c0.733,2.005,3.027,3.293,4.956,3.884c2.125,0.649,6.828,0.056,7.415-0.022
			c0.282,1.405,0.543,2.775,0.768,4.071c0.504,2.861,0.885,5.425,1.174,7.596h1.983c-0.346-2.246-0.798-4.921-1.395-7.925
			c-0.28-1.428-0.608-2.949-0.96-4.507c0.354-0.141,2.36-0.952,4.137-1.945c1.548,1.677,5.516,3.639,6.029,3.889
			c-0.54,1.328-1.078,2.614-1.605,3.82c-1.097,2.525-2.139,4.764-3.059,6.669h2.144c0.791-1.756,1.66-3.756,2.566-5.971
			c0.554-1.346,1.119-2.796,1.685-4.289c0.569,0.119,5.225,1.064,7.395,0.575c1.968-0.445,4.352-1.558,5.233-3.504
			c0.863-1.904,0.09-4.254-1.976-4.948c-2.867-0.964-7.245,2.293-8.848,4.467c-0.095,0.128-0.966,1.634-1.5,2.593
			c0.228-0.611,0.456-1.203,0.683-1.835c0.458-1.247,0.878-2.506,1.334-3.858c0.198-0.661,0.397-1.328,0.599-2.002
			c0.214-0.664,0.356-1.393,0.539-2.095c0.39-1.638,0.706-3.316,0.986-5.013c1.093,0.398,4.996,1.756,7.018,1.613
			c2.013-0.142,4.537-0.881,5.703-2.671c1.141-1.752,0.734-4.191-1.203-5.191c-2.689-1.386-7.509,1.17-9.424,3.076
			c-0.12,0.118-1.34,1.64-1.994,2.489c0.16-1.022,0.326-2.041,0.454-3.08c0.372-2.999,0.656-6.047,0.952-9.086
			c0.09-0.931,0.191-1.858,0.289-2.785c0.388,0.146,4.992,1.86,7.257,1.701c2.012-0.141,4.537-0.881,5.702-2.671
			c1.141-1.752,0.734-4.191-1.203-5.19c-2.689-1.387-7.508,1.169-9.423,3.075c-0.144,0.143-1.897,2.336-2.315,2.915
			c0.216-2.044,0.45-4.078,0.762-6.074c0.427-2.755,0.998-5.434,1.744-7.989c0.18,0.068,4.978,1.879,7.297,1.716
			c2.013-0.141,4.538-0.881,5.703-2.671c1.141-1.752,0.734-4.191-1.203-5.19c-2.689-1.387-7.508,1.17-9.424,3.075
			c-0.15,0.15-2.034,2.509-2.345,2.961c0.045-0.152,0.075-0.314,0.121-0.465c0.83-2.717,1.976-5.245,3.165-7.56
			c0.688-1.346,1.421-2.594,2.161-3.793c0.859,0.429,4.806,2.345,6.91,2.43c2.016,0.08,4.607-0.377,5.962-2.028
			c1.327-1.616,1.19-4.085-0.625-5.291c-2.521-1.673-7.592,0.338-9.704,2.022c-0.115,0.091-1.179,1.152-1.944,1.935
			c0.342-0.536,0.685-1.095,1.024-1.602c1.265-1.906,2.542-3.573,3.684-5.041c0.656-0.829,1.266-1.566,1.844-2.249
			c1.062-0.018,5.343-0.149,7.214-1.027c1.826-0.858,3.915-2.457,4.357-4.547c0.432-2.046-0.827-4.174-2.993-4.407
			c-3.008-0.324-6.582,3.798-7.681,6.266c-0.095,0.214-1.197,3.72-1.141,3.719c0,0,0.052-0.001,0.064-0.001
			c-0.57,0.646-1.172,1.346-1.816,2.124c-1.177,1.446-2.493,3.089-3.804,4.975c-1.316,1.881-2.693,3.962-3.945,6.284
			c-1.258,2.326-2.463,4.838-3.37,7.586c-0.011,0.031-0.017,0.065-0.027,0.096c0.016-0.886-0.023-3.366-0.048-3.555
			c-0.347-2.679-2.592-7.652-5.568-8.202c-2.143-0.396-3.958,1.283-4.129,3.367c-0.174,2.129,1.369,4.259,2.874,5.603
			c1.697,1.516,6.408,2.984,6.783,3.1c-0.84,2.625-1.488,5.387-1.99,8.218c-0.289,1.619-0.529,3.258-0.75,4.904
			c-0.011-0.767-0.027-1.452-0.04-1.548c-0.347-2.679-2.592-7.651-5.568-8.201c-2.143-0.396-3.958,1.283-4.129,3.367
			c-0.175,2.128,1.369,4.259,2.873,5.603c1.527,1.364,5.518,2.696,6.579,3.035c-0.078,0.632-0.163,1.264-0.238,1.896
			c-0.363,3.036-0.712,6.067-1.145,9.03c-0.152,1.044-0.34,2.067-0.525,3.09c-0.011-0.68-0.026-1.254-0.037-1.341
			c-0.348-2.679-2.593-7.652-5.567-8.202c-2.144-0.396-3.959,1.283-4.13,3.367c-0.174,2.128,1.369,4.259,2.874,5.603
			c1.457,1.302,5.13,2.565,6.388,2.973c-0.221,1.043-0.44,2.088-0.701,3.089c-0.194,0.679-0.333,1.346-0.565,2.018
			c-0.216,0.669-0.43,1.332-0.642,1.989c-0.455,1.249-0.916,2.541-1.389,3.748c-0.323,0.842-0.647,1.639-0.971,2.442
			c0.163-1.038,0.441-3.076,0.445-3.248c0.041-1.794-0.596-4.712-1.864-6.763c0.008-0.265-0.007-0.529-0.049-0.791
			c-0.332-2.065-2.272-3.598-4.378-3.037c-2.923,0.778-4.777,5.91-4.916,8.607c-0.008,0.159,0.096,1.896,0.18,2.99
			c-0.148-0.636-0.283-1.255-0.442-1.908c-0.307-1.293-0.651-2.574-1.015-3.954c-0.2-0.66-0.402-1.327-0.605-2
			c-0.188-0.672-0.471-1.358-0.706-2.045c-0.578-1.581-1.241-3.155-1.944-4.726c1.132-0.271,5.136-1.292,6.744-2.526
			c1.601-1.228,3.299-3.238,3.283-5.373c-0.015-2.091-1.699-3.901-3.867-3.666c-3.008,0.326-5.618,5.118-6.164,7.763
			c-0.034,0.165-0.212,2.107-0.289,3.176c-0.43-0.941-0.854-1.882-1.32-2.82c-1.344-2.707-2.788-5.406-4.218-8.104
			c-0.438-0.826-0.865-1.655-1.296-2.482c0.404-0.093,5.19-1.203,6.991-2.585c1.601-1.228,3.299-3.238,3.283-5.373
			c-0.015-2.091-1.7-3.901-3.866-3.665c-3.008,0.327-5.618,5.117-6.164,7.763c-0.041,0.199-0.293,2.995-0.323,3.708
			c-0.947-1.823-1.874-3.649-2.715-5.487c-1.163-2.533-2.165-5.083-2.953-7.625c0.188-0.043,5.188-1.18,7.033-2.595
			c1.601-1.228,3.299-3.238,3.283-5.373c-0.014-2.091-1.699-3.9-3.866-3.665c-3.007,0.326-5.617,5.118-6.163,7.763
			c-0.043,0.208-0.313,3.215-0.323,3.764c-0.047-0.151-0.112-0.302-0.156-0.454c-0.806-2.725-1.245-5.466-1.531-8.052
			c-0.169-1.502-0.246-2.948-0.289-4.356c0.953-0.116,5.303-0.695,7.103-1.786c1.726-1.045,3.635-2.856,3.854-4.98
			c0.214-2.08-1.261-4.064-3.441-4.068c-3.025-0.006-6.146,4.47-6.979,7.04c-0.046,0.14-0.349,1.611-0.554,2.686
			c-0.01-0.636-0.032-1.292-0.03-1.901c0.004-2.288,0.149-4.382,0.292-6.236c0.09-1.054,0.192-2.005,0.298-2.893
			c0.875-0.602,4.374-3.072,5.45-4.837c1.05-1.723,1.909-4.209,1.125-6.195c-0.768-1.945-2.992-3.025-4.928-2.025
			c-2.688,1.389-3.395,6.799-2.95,9.464c0.039,0.23,1.054,3.762,1.1,3.732c0,0,0.043-0.03,0.053-0.036
			c-0.118,0.853-0.235,1.769-0.342,2.773c-0.184,1.855-0.375,3.952-0.429,6.248c-0.06,2.295-0.06,4.79,0.177,7.418
			c0.234,2.634,0.614,5.394,1.374,8.186c0.009,0.032,0.022,0.064,0.031,0.095c-0.476-0.748-1.877-2.794-2.003-2.939
			c-1.767-2.043-6.383-4.951-9.168-3.769c-2.006,0.852-2.594,3.254-1.586,5.087C19.601,401.889,22.063,402.814,24.059,403.106z"/>
		<path style="fill:#92E3A9;" d="M75.936,388.893c0.047,0.029,0.966-3.529,0.998-3.76c0.372-2.676-0.481-8.064-3.205-9.38
			c-1.962-0.948-4.156,0.192-4.871,2.158c-0.73,2.007,0.195,4.469,1.292,6.163C71.437,386.061,75.932,388.89,75.936,388.893z"/>
	</g>
	<g>
		<path style="fill:#92E3A9;" d="M391.337,387.725c2.171,0.948,7.481,0.829,7.485,0.829c0.055-0.001-1.142-3.476-1.242-3.687
			c-1.165-2.438-4.849-6.462-7.847-6.057c-2.16,0.292-3.361,2.453-2.873,4.487C387.357,385.374,389.488,386.917,391.337,387.725z"/>
		<path style="fill:#92E3A9;" d="M393.169,403.106c2.252,0.328,6.991-1.046,7.368-1.157c0.748,2.653,1.731,5.314,2.874,7.953
			c0.652,1.509,1.355,3.009,2.079,4.504c-0.432-0.633-0.823-1.196-0.886-1.269c-1.768-2.043-6.384-4.951-9.168-3.769
			c-2.007,0.852-2.594,3.253-1.587,5.086c1.028,1.871,3.491,2.797,5.488,3.088c2.026,0.296,6.09-0.795,7.161-1.098
			c0.284,0.571,0.561,1.143,0.847,1.713c1.372,2.733,2.753,5.453,4.026,8.163c0.449,0.955,0.856,1.912,1.267,2.868
			c-0.385-0.562-0.713-1.032-0.771-1.099c-1.767-2.043-6.383-4.951-9.168-3.769c-2.006,0.852-2.594,3.254-1.587,5.086
			c1.029,1.872,3.491,2.797,5.488,3.088c1.933,0.282,5.693-0.691,6.968-1.045c0.391,0.992,0.785,1.984,1.119,2.963
			c0.213,0.673,0.466,1.307,0.642,1.995c0.189,0.678,0.376,1.349,0.562,2.013c0.31,1.292,0.638,2.624,0.909,3.893
			c0.195,0.881,0.365,1.724,0.538,2.573c-0.436-0.956-1.329-2.809-1.421-2.955c-1.437-2.287-5.559-5.861-8.491-5.114
			c-2.112,0.539-3.057,2.823-2.338,4.787c0.733,2.005,3.027,3.293,4.956,3.884c2.125,0.649,6.828,0.056,7.415-0.022
			c0.282,1.405,0.543,2.775,0.768,4.071c0.504,2.861,0.885,5.425,1.174,7.596h1.983c-0.346-2.246-0.798-4.921-1.395-7.925
			c-0.28-1.428-0.609-2.949-0.96-4.507c0.354-0.141,2.36-0.952,4.137-1.945c1.548,1.677,5.516,3.639,6.029,3.889
			c-0.54,1.328-1.078,2.614-1.605,3.82c-1.097,2.525-2.139,4.764-3.059,6.669h2.144c0.791-1.756,1.66-3.756,2.566-5.971
			c0.554-1.346,1.119-2.796,1.685-4.289c0.569,0.119,5.225,1.064,7.395,0.575c1.968-0.445,4.352-1.558,5.233-3.504
			c0.863-1.904,0.09-4.254-1.976-4.948c-2.867-0.964-7.245,2.293-8.848,4.467c-0.095,0.128-0.966,1.634-1.5,2.593
			c0.228-0.611,0.456-1.203,0.683-1.835c0.458-1.247,0.878-2.506,1.335-3.858c0.198-0.661,0.397-1.328,0.599-2.002
			c0.214-0.664,0.356-1.393,0.539-2.095c0.39-1.638,0.705-3.316,0.986-5.013c1.093,0.398,4.996,1.756,7.018,1.613
			c2.013-0.142,4.537-0.881,5.703-2.671c1.141-1.752,0.734-4.191-1.203-5.191c-2.689-1.386-7.509,1.17-9.424,3.076
			c-0.12,0.118-1.34,1.64-1.994,2.489c0.16-1.022,0.326-2.041,0.454-3.08c0.372-2.999,0.656-6.047,0.952-9.086
			c0.09-0.931,0.191-1.858,0.289-2.785c0.388,0.146,4.991,1.86,7.256,1.701c2.013-0.141,4.537-0.881,5.703-2.671
			c1.141-1.752,0.734-4.191-1.203-5.19c-2.689-1.387-7.509,1.169-9.423,3.075c-0.144,0.143-1.897,2.336-2.315,2.915
			c0.216-2.044,0.45-4.078,0.762-6.074c0.427-2.755,0.998-5.434,1.744-7.989c0.18,0.068,4.978,1.879,7.297,1.716
			c2.013-0.141,4.538-0.881,5.703-2.671c1.141-1.752,0.734-4.191-1.203-5.19c-2.689-1.387-7.508,1.17-9.424,3.075
			c-0.15,0.15-2.034,2.509-2.346,2.961c0.045-0.152,0.074-0.314,0.121-0.465c0.83-2.717,1.976-5.245,3.165-7.56
			c0.688-1.346,1.421-2.594,2.161-3.793c0.859,0.429,4.806,2.345,6.91,2.43c2.016,0.08,4.607-0.377,5.962-2.028
			c1.327-1.616,1.19-4.085-0.625-5.291c-2.521-1.673-7.592,0.338-9.704,2.022c-0.115,0.091-1.179,1.152-1.944,1.935
			c0.342-0.536,0.685-1.095,1.024-1.602c1.265-1.906,2.542-3.573,3.684-5.041c0.656-0.829,1.266-1.566,1.844-2.249
			c1.062-0.018,5.343-0.149,7.214-1.027c1.826-0.858,3.915-2.457,4.357-4.547c0.432-2.046-0.827-4.174-2.993-4.407
			c-3.008-0.324-6.582,3.798-7.681,6.266c-0.095,0.214-1.197,3.72-1.141,3.719c0,0,0.052-0.001,0.064-0.001
			c-0.57,0.646-1.172,1.346-1.816,2.124c-1.177,1.446-2.493,3.089-3.804,4.975c-1.316,1.881-2.693,3.962-3.945,6.284
			c-1.258,2.326-2.463,4.838-3.37,7.586c-0.01,0.031-0.017,0.065-0.027,0.096c0.016-0.886-0.023-3.366-0.048-3.555
			c-0.347-2.679-2.592-7.652-5.568-8.202c-2.143-0.396-3.958,1.283-4.129,3.367c-0.174,2.129,1.369,4.259,2.874,5.603
			c1.697,1.516,6.408,2.984,6.783,3.1c-0.84,2.625-1.488,5.387-1.99,8.218c-0.289,1.619-0.529,3.258-0.75,4.904
			c-0.011-0.767-0.027-1.452-0.039-1.548c-0.347-2.679-2.593-7.651-5.568-8.201c-2.143-0.396-3.958,1.283-4.129,3.367
			c-0.175,2.128,1.369,4.259,2.873,5.603c1.527,1.364,5.518,2.696,6.579,3.035c-0.078,0.632-0.163,1.264-0.238,1.896
			c-0.363,3.036-0.711,6.067-1.145,9.03c-0.152,1.044-0.34,2.067-0.525,3.09c-0.011-0.68-0.025-1.254-0.037-1.341
			c-0.348-2.679-2.593-7.652-5.567-8.202c-2.144-0.396-3.959,1.283-4.13,3.367c-0.174,2.128,1.369,4.259,2.874,5.603
			c1.456,1.302,5.13,2.565,6.388,2.973c-0.221,1.043-0.44,2.088-0.701,3.089c-0.194,0.679-0.333,1.346-0.565,2.018
			c-0.216,0.669-0.43,1.332-0.642,1.989c-0.455,1.249-0.916,2.541-1.389,3.748c-0.323,0.842-0.647,1.639-0.971,2.442
			c0.163-1.038,0.441-3.076,0.445-3.248c0.041-1.794-0.596-4.712-1.864-6.763c0.008-0.265-0.007-0.529-0.049-0.791
			c-0.332-2.065-2.271-3.598-4.378-3.037c-2.923,0.778-4.778,5.91-4.916,8.607c-0.008,0.159,0.096,1.896,0.18,2.99
			c-0.148-0.636-0.283-1.255-0.442-1.908c-0.307-1.293-0.651-2.574-1.015-3.954c-0.199-0.66-0.402-1.327-0.605-2
			c-0.188-0.672-0.471-1.358-0.706-2.045c-0.578-1.581-1.241-3.155-1.944-4.726c1.132-0.271,5.136-1.292,6.744-2.526
			c1.601-1.228,3.298-3.238,3.283-5.373c-0.015-2.091-1.699-3.901-3.866-3.666c-3.008,0.326-5.618,5.118-6.164,7.763
			c-0.034,0.165-0.212,2.107-0.289,3.176c-0.43-0.941-0.854-1.882-1.32-2.82c-1.344-2.707-2.788-5.406-4.218-8.104
			c-0.438-0.826-0.865-1.655-1.296-2.482c0.404-0.093,5.19-1.203,6.991-2.585c1.601-1.228,3.298-3.238,3.283-5.373
			c-0.015-2.091-1.7-3.901-3.866-3.665c-3.008,0.327-5.618,5.117-6.164,7.763c-0.041,0.199-0.293,2.995-0.323,3.708
			c-0.947-1.823-1.874-3.649-2.715-5.487c-1.164-2.533-2.165-5.083-2.953-7.625c0.189-0.043,5.188-1.18,7.033-2.595
			c1.601-1.228,3.299-3.238,3.283-5.373c-0.015-2.091-1.699-3.9-3.866-3.665c-3.008,0.326-5.618,5.118-6.163,7.763
			c-0.043,0.208-0.313,3.215-0.323,3.764c-0.047-0.151-0.112-0.302-0.156-0.454c-0.806-2.725-1.245-5.466-1.53-8.052
			c-0.169-1.502-0.246-2.948-0.289-4.356c0.953-0.116,5.303-0.695,7.103-1.786c1.726-1.045,3.634-2.856,3.854-4.98
			c0.215-2.08-1.261-4.064-3.441-4.068c-3.025-0.006-6.146,4.47-6.979,7.04c-0.046,0.14-0.349,1.611-0.554,2.686
			c-0.01-0.636-0.032-1.292-0.03-1.901c0.004-2.288,0.149-4.382,0.292-6.236c0.09-1.054,0.192-2.005,0.298-2.893
			c0.875-0.602,4.374-3.072,5.45-4.837c1.05-1.723,1.909-4.209,1.125-6.195c-0.768-1.945-2.992-3.025-4.928-2.025
			c-2.688,1.389-3.395,6.799-2.95,9.464c0.039,0.23,1.054,3.762,1.1,3.732c0,0,0.043-0.03,0.053-0.036
			c-0.118,0.853-0.235,1.769-0.342,2.773c-0.184,1.855-0.375,3.952-0.429,6.248c-0.06,2.295-0.06,4.79,0.177,7.418
			c0.234,2.634,0.614,5.394,1.374,8.186c0.009,0.032,0.022,0.064,0.031,0.095c-0.476-0.748-1.877-2.794-2.002-2.939
			c-1.767-2.043-6.383-4.951-9.168-3.769c-2.006,0.852-2.594,3.254-1.586,5.087C388.711,401.889,391.173,402.814,393.169,403.106z"
			/>
		<path style="fill:#92E3A9;" d="M445.046,388.893c0.047,0.029,0.966-3.529,0.998-3.76c0.372-2.676-0.481-8.064-3.205-9.38
			c-1.962-0.948-4.156,0.192-4.871,2.158c-0.73,2.007,0.195,4.469,1.292,6.163C440.547,386.061,445.043,388.89,445.046,388.893z"/>
	</g>
</g>
<g id="Characters">
	<g>
		<g>
			<path style="fill:#263238;stroke:#263238;stroke-linecap:round;stroke-linejoin:round;stroke-miterlimit:10;" d="M349.333,179.57
				c0,0,0.307-11.286,6.815-14.492c6.509-3.206,6.878,7.374,6.878,7.374s14.898-9.457,18.127-2.287
				c3.229,7.17-1.284,10.638-1.284,10.638s13.225-0.461,14.14,6.79c0.915,7.251-5.913,10.799-5.913,10.799s8.177,6.667,5.305,9.746
				c-2.872,3.079-9.154,3.298-9.154,3.298s3.56,7.159-2.641,9.692c-6.201,2.533-13.317-2.184-13.317-2.184s1.107,3.272-3.556,2.441
				c-4.663-0.831-9.373-2.984-12.26-9.835C349.584,204.699,345.854,185.339,349.333,179.57z"/>
			<g>
				<path style="fill:#BDBDBD;stroke:#263238;stroke-miterlimit:10;" d="M280.595,397.621c0,0-3.715,14.156-3.66,15.732
					c0.055,1.576-1.224,5.127-0.137,6.141c1.087,1.014,5.938,4.352,6.469,4.508c0.532,0.157,2.089-0.423,2.602-0.792
					c0.513-0.368,0.833-1.256,0.815-1.782c-0.018-0.525-1.499-2.753-1.692-3.272c-0.193-0.519,2.727-7.284,3.837-10.654
					c1.11-3.37,1.784-9.179,1.784-9.179L280.595,397.621z"/>
				<path style="fill:#BDBDBD;stroke:#263238;stroke-miterlimit:10;" d="M284.62,407.475c0,0-2.106,4.983-2.25,5.864
					c-0.145,0.882-3.042,3.262-2.625,5.176c0.417,1.914,4.608,1.417,6.689-4.266"/>
			</g>
			<path style="fill:#92E3A9;stroke:#263238;stroke-miterlimit:10;" d="M294.073,320.7c0,0-1.774,28.883-2.444,31.434
				c-0.669,2.551-8.706,25.837-10.48,32.978s-2.311,13.48-2.311,13.48l10.796,2.268l6.052-26.62c0,0,7.922-24.223,6.343-35.615
				C300.45,327.233,294.073,320.7,294.073,320.7z"/>
			<g>
				<path style="fill:#92E3A9;stroke:#263238;stroke-miterlimit:10;" d="M350.282,457.13c0.125-6.283,0.391-14.752,0.954-19.601
					c0.972-8.377,4.584-13.559,8.263-24.052c3.679-10.494,3.961-24.155,3.961-24.155l-65.904,2.297c0,0-7.608,28.327-12.189,49.218
					c-1.536,7.005-2.103,12.315-2.183,16.294"/>
				<polygon style="fill:#263238;stroke:#263238;stroke-linecap:round;stroke-linejoin:round;stroke-miterlimit:10;" points="
					306.269,402.291 361.104,403.836 362.263,399.588 				"/>
				<path style="fill:#FFFFFF;stroke:#263238;stroke-miterlimit:10;" d="M303.503,456.125c0,0-1.082-34.286-1.108-52.893"/>
			</g>
			<g>
				<path style="fill:#92E3A9;stroke:#263238;stroke-miterlimit:10;" d="M345.525,248.158l7.997,5.384
					c0,0,9.452,8.475,11.807,15.436c2.356,6.961,0.637,48.576-1.711,62.04c-2.348,13.464,3.517,30.163,5.606,39.599
					c2.09,9.436,3.054,27.01,3.054,27.01s1.481,2.061-24.196,2.956c-25.677,0.895-43.59,2.224-45.689,2.649
					c-2.098,0.425-3.857,0.487-3.857,0.487l-1.022-9.121l-2.556,7.484l-5.325-1.223c0,0,3.305-16.315,4.139-22.683
					c0.835-6.368,6.066-28.032,6.136-36.134c0.07-8.102-6.727-21.247-8.065-29.3s1.35-21.881,8.029-32.327
					c6.679-10.445,11.117-14.474,24.127-25.14C337.012,244.609,345.525,248.158,345.525,248.158z"/>
				<polyline style="fill:none;stroke:#263238;stroke-miterlimit:10;" points="324.69,370.015 351.516,373.052 350.007,366.026 
					333.272,364.587 				"/>
				<polyline style="fill:none;stroke:#263238;stroke-miterlimit:10;" points="315.309,364.202 313.952,368.8 320.683,369.562 				
					"/>
				<path style="fill:none;stroke:#263238;stroke-miterlimit:10;" d="M325.377,318.232c-1.396-1.342-2.641-2.67-3.461-3.811"/>
				<path style="fill:none;stroke:#263238;stroke-miterlimit:10;" d="M334.711,326.109c0,0-2.834-2.138-5.934-4.804"/>
			</g>
			<path style="fill:#92E3A9;stroke:#263238;stroke-miterlimit:10;" d="M345.525,248.158c0,0-8.513-3.548-21.524,7.118
				c-13.01,10.666-17.448,14.695-24.127,25.14c-4.135,6.467-6.736,14.228-7.803,21.114c0.16,0.78,0.331,1.572,0.523,2.382
				c3.717,15.718,7.856,23.321,7.856,23.321s7.203-35.819,19.727-50.342c12.524-14.523,33.346-23.348,33.346-23.348L345.525,248.158
				z"/>
			<path style="fill:#BDBDBD;stroke:#263238;stroke-miterlimit:10;" d="M314.259,178.29c0,0-9.39,8.772-10.088,15.677
				c-0.697,6.905-1.428,12.873-2.601,15.103c-1.173,2.23-7.065,3.687-5.071,7.058c1.994,3.371,3.868,3.306,3.868,3.306
				s3.022,14.907,5.285,17.018c2.263,2.11,10.352,0.89,10.352,0.89l2.491,18.08c0,0-16.783,14.892-20.052,35.635
				c-3.27,20.743,0.471,32.591,0.471,32.591s2.188-32.683,9.747-44.925c7.559-12.242,25.122-23.834,27.711-25.92
				c2.589-2.087,9.155-4.645,9.155-4.645s-3.118-7.045-3.539-10.158c-0.421-3.113-0.272-7.81,0.309-9.081
				c0.581-1.271,11.082-5.078,15.042-17.101c3.96-12.023-1.852-26.208-8.005-32.248C343.18,173.529,322.119,170.51,314.259,178.29z"
				/>
			<path style="fill:#263238;stroke:#263238;stroke-linecap:round;stroke-linejoin:round;stroke-miterlimit:10;" d="
				M357.337,211.818c3.96-12.023-1.852-26.208-8.005-32.248c-6.153-6.041-27.213-9.06-35.074-1.279c0,0-0.504,0.471-1.281,1.275
				c1.619-0.433,4.844-1.001,9.134-0.298c6.291,1.032,6.153,6.041,4.442,10.792c-1.711,4.751-0.429,5.645,2.782,8.035
				c3.211,2.39-0.073,6.883,2.179,8.681c2.252,1.798,4.101-7.962,9.037-0.941s1.609,10.265-1.45,12.248
				c-3.059,1.983-5.536,2.695-5.536,2.695s4.636,5.429,9.198,7.668C344.943,226.79,353.779,222.622,357.337,211.818z"/>
			<g>
				<path style="fill:none;stroke:#263238;stroke-miterlimit:10;" d="M305.464,222.071c0,0,6.549-0.541,9.575-3.461"/>
				<path style="fill:#263238;" d="M309.616,206.601c0.054,1.553-0.531,2.833-1.308,2.86c-0.776,0.027-1.45-1.21-1.504-2.762
					s0.531-2.833,1.308-2.861C308.888,203.811,309.562,205.048,309.616,206.601z"/>
				<path style="fill:none;stroke:#263238;stroke-miterlimit:10;" d="M306.8,200.266c0,0,2.111-2.837,5.13,0.51"/>
			</g>
			<polygon style="fill:#263238;stroke:#263238;stroke-miterlimit:10;" points="316.004,237.342 323.806,234.398 318.371,244.169 
							"/>
			<polygon style="fill:#FFFFFF;stroke:#263238;stroke-miterlimit:10;" points="293.511,380.866 283.268,424.003 292.46,426.137 
				297.516,394.598 			"/>
			<path style="fill:#FFFFFF;stroke:#263238;stroke-miterlimit:10;" d="M302.56,277.609c-1.85,4.089-3.354,8.606-4.118,13.448
				c-3.27,20.743,0.471,32.591,0.471,32.591s2.162-32.244,9.6-44.671C306.171,278.704,304.192,278.198,302.56,277.609z"/>
		</g>
		<g>
			<path style="fill:#92E3A9;stroke:#263238;stroke-miterlimit:10;" d="M334.204,291.07l-0.704,36.602l-64.054,10.558l1.408,17.245
				c0,0,35.547,0.704,52.088-0.704s30.971-2.464,33.083-4.223c2.112-1.76,8.106-35.781,10.57-59.713
				c2.464-23.932-2.464-32.027-12.318-30.619"/>
			<g>
				<path style="fill:#FFFFFF;stroke:#263238;stroke-miterlimit:10;" d="M231.133,336.675l-5.12,15.565l5.039,2.722
					c0,0,6.349,4.915,9.83,7.578c3.481,2.662,6.144,2.662,7.987,1.843c1.843-0.819,10.24-12.697,11.264-14.95
					c1.024-2.253-3.891-9.011-8.806-11.878s-9.011-2.867-11.878-2.048C236.581,336.325,231.133,336.675,231.133,336.675z"/>
				<path style="fill:#BDBDBD;stroke:#263238;stroke-miterlimit:10;" d="M269.446,338.231l-8.095-0.704c0,0-5.631-1.408-7.743-1.408
					s-4.927,2.112-6.335,3.168c-1.408,1.056-16.893,17.949-16.893,17.949s1.408,2.816,3.519,2.112
					c2.112-0.704,5.983-2.464,5.983-2.464s-4.223,4.223-2.112,6.335c2.112,2.112,5.631,2.112,5.631,2.112l2.464-1.408
					c0,0,1.76,1.408,3.519,1.76c1.76,0.352,4.575-0.352,7.039-1.76c2.464-1.408,8.703-8.749,8.703-8.749l5.408-2.092
					L269.446,338.231z"/>
				<path style="fill:#FFFFFF;stroke:#263238;stroke-miterlimit:10;" d="M233.919,337.349c0,0,10.24-5.939,14.745-4.301
					c4.506,1.638,10.445,11.674,8.806,13.107c-1.638,1.434-4.301,0.819-5.734-0.614c-1.434-1.434-3.891-2.867-3.891-2.867
					s-4.096,2.458-8.806,2.458"/>
				<g>
					<path style="fill:#FFFFFF;stroke:#263238;stroke-miterlimit:10;" d="M264.457,360.597l-3.251-1.737
						c-1.097-0.586-1.512-1.951-0.925-3.049l0,0c0.586-1.097,1.951-1.512,3.049-0.925l3.251,1.737
						c1.097,0.586,1.512,1.951,0.925,3.049l0,0C266.919,360.769,265.555,361.184,264.457,360.597z"/>
					<path style="fill:#FFFFFF;stroke:#263238;stroke-miterlimit:10;" d="M261.59,364.079l-3.251-1.737
						c-1.097-0.586-1.512-1.951-0.925-3.049l0,0c0.586-1.097,1.951-1.512,3.049-0.925l3.251,1.737
						c1.097,0.586,1.512,1.951,0.925,3.049l0,0C264.052,364.251,262.688,364.665,261.59,364.079z"/>
					<path style="fill:#FFFFFF;stroke:#263238;stroke-miterlimit:10;" d="M258.313,367.151l-3.251-1.737
						c-1.097-0.586-1.512-1.951-0.925-3.049l0,0c0.586-1.097,1.951-1.512,3.049-0.925l3.251,1.737
						c1.097,0.586,1.512,1.951,0.925,3.049l0,0C260.776,367.323,259.411,367.737,258.313,367.151z"/>
					<path style="fill:#FFFFFF;stroke:#263238;stroke-miterlimit:10;" d="M251.411,367.304l-0.855-0.457
						c-1.097-0.586-1.512-1.951-0.925-3.049l0,0c0.586-1.097,1.951-1.512,3.049-0.925l0.854,0.457
						c1.097,0.586,1.512,1.951,0.925,3.049h0C253.873,367.476,252.508,367.89,251.411,367.304z"/>
				</g>
			</g>
		</g>
		<g>
			<polygon style="fill:#263238;stroke:#263238;stroke-linecap:round;stroke-linejoin:round;stroke-miterlimit:10;" points="
				231.133,336.675 188.15,318.508 189.739,346.974 225.232,355.107 			"/>
			<polygon style="fill:#FFFFFF;stroke:#263238;stroke-miterlimit:10;" points="225.232,355.107 231.133,336.675 225.124,334.024 
				225.005,334.627 219.496,353.718 			"/>
		</g>
		<g>
			<g>
				<g>
					<path style="fill:#FFFFFF;stroke:#263238;stroke-linecap:round;stroke-linejoin:round;stroke-miterlimit:10;" d="
						M164.044,222.796l11.024,5.115c0,0,4.619,13.087,3.079,13.472c-1.54,0.385-13.087-8.853-13.087-8.853L164.044,222.796z"/>
					<path style="fill:#FFFFFF;stroke:#263238;stroke-linecap:round;stroke-linejoin:round;stroke-miterlimit:10;" d="
						M170.388,220.176l0.774-4.407c0,0,10.198,0.701,14.275,0.676s7.642-0.557,7.615-4.889c-0.027-4.332-2.412-19.098-2.412-19.098
						s4.581-1.048,6.352-3.098c1.771-2.05-0.793-4.582-3.105-7.626c-2.312-3.044-4.372-6.344-4.649-9.91
						c-0.277-3.566-6.466-15.25-6.466-15.25s1.008-1.79-2.328-5.592c-3.337-3.802-20.415-4.46-31.339,0.959
						c-10.924,5.419-13.424,13.335-13.37,21.999c0.054,8.664,4.971,20.866,4.971,20.866s-3.231,13.272-3.481,14.038
						c-0.25,0.766-3.142,6.412-3.142,6.412s13.662,9.536,18.66,13.811c4.997,4.275,16.252,11.601,16.322,7.645
						c0.07-3.955,0.521-12.905,0.521-12.905L170.388,220.176z"/>
					<path style="fill:#263238;" d="M185.458,178.821c0.066,1.476-0.279,2.691-0.771,2.713c-0.492,0.022-0.945-1.157-1.011-2.633
						c-0.067-1.476,0.278-2.691,0.771-2.713C184.939,176.166,185.391,177.345,185.458,178.821z"/>
					<path style="fill:none;stroke:#263238;stroke-width:2;stroke-linecap:round;stroke-linejoin:round;stroke-miterlimit:10;" d="
						M178.293,173.931c0,0,2.27-3.837,8.145-1.58"/>
				</g>
				<path style="fill:#263238;stroke:#263238;stroke-linecap:round;stroke-linejoin:round;stroke-miterlimit:10;" d="
					M193.052,211.555c-0.027-4.332-2.412-19.098-2.412-19.098s-2.813-1.512-8.156-0.204c-5.344,1.307-6.819,9.981-7.832,11.007
					c-1.013,1.026-7.677-5.049-10.25-9.111c-2.574-4.061-4.402-11.186-4.682-15.261c-0.28-4.076,9.391-6.174,10.896-10.006
					c1.505-3.832-5.655-7.865-3.123-10.429c2.532-2.564,7.635-1.576,10.187-1.083c2.551,0.494,5.092-0.796,5.092-0.796
					s1.008-1.79-2.328-5.592c-3.337-3.802-20.415-4.461-31.339,0.959c-10.924,5.419-13.424,13.335-13.37,21.999
					c0.043,7.021,3.281,16.364,4.507,19.656c0.982,0.353,2.582,0.858,3.264,0.683c1.018-0.261,1.763-3.324,2.254-6.385
					c0.491-3.061,7.859-6.675,7.859-6.675s1.331,9.166,1.342,10.95c0.011,1.784-0.953,10.709,3.916,15.011
					c4.869,4.302,12.286,8.588,12.286,8.588s10.198,0.701,14.275,0.676S193.079,215.887,193.052,211.555z"/>
				<path style="fill:#FFFFFF;stroke:#263238;stroke-linecap:round;stroke-linejoin:round;stroke-miterlimit:10;" d="
					M155.187,187.581c0,0-2.115-12.219-5.679-11.687c-3.564,0.532-5.575,5.131-3.754,10.981c1.82,5.85,5.385,5.318,7.42,4.796"/>
				<path style="fill:none;stroke:#FFFFFF;stroke-linecap:round;stroke-linejoin:round;stroke-miterlimit:10;" d="M180.219,196.854
					c0,0,2.054,2.536,7.406,2.502"/>
			</g>
			<path style="fill:#263238;stroke:#263238;stroke-linecap:round;stroke-linejoin:round;stroke-miterlimit:10;" d="M122.963,457.13
				h53.994c0.187-2.836,2.278-13.762,2.278-20.916c0-8.278,5.694-61.625,5.694-61.625l-70.229-0.92L117,406.321L122.963,457.13z"/>
			<path style="fill:#263238;stroke:#263238;stroke-linecap:round;stroke-linejoin:round;stroke-miterlimit:10;" d="
				M130.033,217.134c0,0-12.317,15.781-15.781,24.634c-3.464,8.853-6.159,10.393-5.389,21.555
				c0.77,11.162,6.159,55.811,6.159,55.811l-10.777,58.121c0,0,17.321,6.928,39.645,6.928s31.947-1.925,33.487-2.694
				c1.54-0.77,15.011-4.234,15.011-4.234s0-65.819-4.234-88.529c-4.234-22.71-9.623-40.03-11.547-44.264
				c-1.925-4.234-8.083-18.091-8.083-18.091L130.033,217.134z"/>
			<path style="fill:#263238;stroke:#263238;stroke-linecap:round;stroke-linejoin:round;stroke-miterlimit:10;" d="
				M176.607,244.462c-1.924-4.234-8.083-18.091-8.083-18.091l-38.491-9.238c0,0-2.604,3.338-5.754,7.802
				c8.389,4.877,29.161,16.91,30.388,17.217c1.54,0.385,9.238-0.385,9.238-0.385l-3.464,4.234c0,0,9.238,7.313,12.317,10.392
				c1.619,1.619,6.324,5.898,10.422,9.592C180.386,254.929,177.814,247.119,176.607,244.462z"/>
			<polygon style="fill:#FFFFFF;stroke:#263238;stroke-linecap:round;stroke-linejoin:round;stroke-miterlimit:10;" points="
				158.901,234.84 171.988,245.232 182.766,264.478 175.837,236.38 161.596,228.296 			"/>
			<polygon style="fill:#FFFFFF;stroke:#263238;stroke-linecap:round;stroke-linejoin:round;stroke-miterlimit:10;" points="
				132.728,209.821 173.034,227.982 173.034,242.223 126.954,218.674 			"/>
			<g>
				<rect x="116.377" y="355.494" style="fill:#92E3A9;stroke:#263238;stroke-miterlimit:10;" width="69.639" height="56.346"/>
				<path style="fill:#FFFFFF;stroke:#263238;stroke-linecap:round;stroke-linejoin:round;stroke-miterlimit:10;" d="
					M155.475,382.348c0,0,5.178,6.754,7.204,7.429c2.026,0.675,3.152,2.251,4.052,3.602c0.9,1.351,2.026,11.482,2.702,12.157
					c0.675,0.675,0.675,2.251-1.801,1.126c-2.477-1.126-4.052-4.953-4.052-4.953l0.9,9.005c0,0,2.026,0.45,0.45,1.576
					c-1.576,1.126-2.927,2.702-4.277,2.026c-1.351-0.675-3.377-2.476-3.377-2.476s-2.476,0.901-4.953,0.45
					c-2.477-0.45-2.026,0.45-4.278-1.126c-2.251-1.576-2.251,0.225-3.377-2.702c-1.126-2.927-3.827-13.058-4.277-15.985
					c-0.45-2.927-0.901-6.979-0.901-6.979L155.475,382.348z"/>
				<polygon style="fill:#FFFFFF;stroke:#263238;stroke-linecap:round;stroke-linejoin:round;stroke-miterlimit:10;" points="
					156.375,378.07 157.951,385.049 138.59,387.751 137.689,380.772 				"/>
				<path style="fill:#263238;stroke:#263238;stroke-linecap:round;stroke-linejoin:round;stroke-miterlimit:10;" d="
					M131.573,230.991c0,0-13.472,4.234-13.857,10.392c-0.385,6.159-4.845,80.864-2.921,85.868
					c1.924,5.004,20.869,55.672,20.869,55.672l21.94-2.694c0,0-11.246-58.751-11.631-59.906c-0.385-1.155,7.54-66.622,7.54-66.622"
					/>
				<g>
					<polyline style="fill:none;stroke:#878787;stroke-linecap:round;stroke-linejoin:round;stroke-miterlimit:10;" points="
						150.931,272.504 145.973,320.322 150.703,350.034 					"/>
					
						<line style="fill:none;stroke:#878787;stroke-linecap:round;stroke-linejoin:round;stroke-miterlimit:10;" x1="151.69" y1="265.183" x2="151.426" y2="267.725"/>
					
						<line style="fill:none;stroke:#878787;stroke-linecap:round;stroke-linejoin:round;stroke-miterlimit:10;" x1="116.171" y1="257.783" x2="114.691" y2="302.676"/>
					<polyline style="fill:none;stroke:#878787;stroke-linecap:round;stroke-linejoin:round;stroke-miterlimit:10;" points="
						166.491,342.186 181.289,341.648 182.615,346.974 158.103,348.554 					"/>
					
						<line style="fill:none;stroke:#878787;stroke-linecap:round;stroke-linejoin:round;stroke-miterlimit:10;" x1="154.156" y1="342.634" x2="162.039" y2="342.348"/>
					<polyline style="fill:none;stroke:#878787;stroke-linecap:round;stroke-linejoin:round;stroke-miterlimit:10;" points="
						127.517,226.211 154.667,242.153 163.905,241.768 160.441,246.002 178.329,260.25 					"/>
				</g>
			</g>
		</g>
	</g>
</g>
<g id="Table">
	<line style="fill:none;stroke:#263238;stroke-miterlimit:10;" x1="11.48" y1="457.13" x2="467.974" y2="457.13"/>
</g>
<g id="Lines_1">
	<g>
		<line style="fill:none;stroke:#263238;stroke-miterlimit:10;" x1="140.485" y1="45.024" x2="140.485" y2="112.614"/>
		<line style="fill:none;stroke:#263238;stroke-miterlimit:10;" x1="244.309" y1="45.024" x2="244.309" y2="112.614"/>
		<line style="fill:none;stroke:#263238;stroke-miterlimit:10;" x1="348.132" y1="45.024" x2="348.132" y2="112.614"/>
	</g>
</g>
</svg>
